<mxfile host="Electron" agent="Mozilla/5.0 (Macintosh; Intel Mac OS X 10_15_7) AppleWebKit/537.36 (KHTML, like Gecko) draw.io/25.0.2 Chrome/128.0.6613.186 Electron/32.2.5 Safari/537.36" version="25.0.2">
  <diagram name="第 1 页" id="HPkf7RqYfHRf96JqcLBZ">
    <mxGraphModel dx="1732" dy="1342" grid="0" gridSize="10" guides="1" tooltips="1" connect="1" arrows="1" fold="1" page="1" pageScale="1" pageWidth="1169" pageHeight="827" math="0" shadow="0">
      <root>
        <mxCell id="0" />
        <mxCell id="1" parent="0" />
        <mxCell id="L8GZP44QrCQ9_YgpMMju-5" style="rounded=0;orthogonalLoop=1;jettySize=auto;html=1;exitX=1;exitY=0;exitDx=0;exitDy=0;entryX=0;entryY=1;entryDx=0;entryDy=0;" edge="1" parent="1" source="L8GZP44QrCQ9_YgpMMju-1" target="L8GZP44QrCQ9_YgpMMju-3">
          <mxGeometry relative="1" as="geometry" />
        </mxCell>
        <mxCell id="L8GZP44QrCQ9_YgpMMju-1" value="&lt;font style=&quot;font-size: 15px;&quot;&gt;6&lt;/font&gt;" style="ellipse;whiteSpace=wrap;html=1;aspect=fixed;" vertex="1" parent="1">
          <mxGeometry x="160" y="760" width="40" height="40" as="geometry" />
        </mxCell>
        <mxCell id="L8GZP44QrCQ9_YgpMMju-6" style="rounded=0;orthogonalLoop=1;jettySize=auto;html=1;exitX=0;exitY=0;exitDx=0;exitDy=0;entryX=1;entryY=1;entryDx=0;entryDy=0;" edge="1" parent="1" source="L8GZP44QrCQ9_YgpMMju-2" target="L8GZP44QrCQ9_YgpMMju-3">
          <mxGeometry relative="1" as="geometry" />
        </mxCell>
        <mxCell id="L8GZP44QrCQ9_YgpMMju-2" value="&lt;font style=&quot;font-size: 15px;&quot;&gt;7&lt;/font&gt;" style="ellipse;whiteSpace=wrap;html=1;aspect=fixed;" vertex="1" parent="1">
          <mxGeometry x="280" y="760" width="40" height="40" as="geometry" />
        </mxCell>
        <mxCell id="L8GZP44QrCQ9_YgpMMju-11" style="rounded=0;orthogonalLoop=1;jettySize=auto;html=1;exitX=1;exitY=0;exitDx=0;exitDy=0;entryX=0;entryY=1;entryDx=0;entryDy=0;" edge="1" parent="1" source="L8GZP44QrCQ9_YgpMMju-3" target="L8GZP44QrCQ9_YgpMMju-10">
          <mxGeometry relative="1" as="geometry" />
        </mxCell>
        <mxCell id="L8GZP44QrCQ9_YgpMMju-3" value="" style="ellipse;whiteSpace=wrap;html=1;aspect=fixed;" vertex="1" parent="1">
          <mxGeometry x="220" y="680" width="40" height="40" as="geometry" />
        </mxCell>
        <mxCell id="L8GZP44QrCQ9_YgpMMju-12" style="rounded=0;orthogonalLoop=1;jettySize=auto;html=1;exitX=0;exitY=0;exitDx=0;exitDy=0;entryX=1;entryY=1;entryDx=0;entryDy=0;" edge="1" parent="1" source="L8GZP44QrCQ9_YgpMMju-4" target="L8GZP44QrCQ9_YgpMMju-10">
          <mxGeometry relative="1" as="geometry" />
        </mxCell>
        <mxCell id="L8GZP44QrCQ9_YgpMMju-4" value="&lt;font style=&quot;font-size: 15px;&quot;&gt;5&lt;/font&gt;" style="ellipse;whiteSpace=wrap;html=1;aspect=fixed;" vertex="1" parent="1">
          <mxGeometry x="340" y="680" width="40" height="40" as="geometry" />
        </mxCell>
        <mxCell id="L8GZP44QrCQ9_YgpMMju-7" value="5" style="text;html=1;align=center;verticalAlign=middle;resizable=0;points=[];autosize=1;strokeColor=none;fillColor=none;" vertex="1" parent="1">
          <mxGeometry x="140" y="765" width="30" height="30" as="geometry" />
        </mxCell>
        <mxCell id="L8GZP44QrCQ9_YgpMMju-8" value="5" style="text;html=1;align=center;verticalAlign=middle;resizable=0;points=[];autosize=1;strokeColor=none;fillColor=none;" vertex="1" parent="1">
          <mxGeometry x="260" y="765" width="30" height="30" as="geometry" />
        </mxCell>
        <mxCell id="L8GZP44QrCQ9_YgpMMju-9" value="10" style="text;html=1;align=center;verticalAlign=middle;resizable=0;points=[];autosize=1;strokeColor=none;fillColor=none;" vertex="1" parent="1">
          <mxGeometry x="190" y="685" width="40" height="30" as="geometry" />
        </mxCell>
        <mxCell id="L8GZP44QrCQ9_YgpMMju-27" style="rounded=0;orthogonalLoop=1;jettySize=auto;html=1;exitX=1;exitY=0;exitDx=0;exitDy=0;entryX=0;entryY=1;entryDx=0;entryDy=0;" edge="1" parent="1" source="L8GZP44QrCQ9_YgpMMju-10" target="L8GZP44QrCQ9_YgpMMju-26">
          <mxGeometry relative="1" as="geometry" />
        </mxCell>
        <mxCell id="L8GZP44QrCQ9_YgpMMju-10" value="" style="ellipse;whiteSpace=wrap;html=1;aspect=fixed;" vertex="1" parent="1">
          <mxGeometry x="280" y="600" width="40" height="40" as="geometry" />
        </mxCell>
        <mxCell id="L8GZP44QrCQ9_YgpMMju-13" value="10" style="text;html=1;align=center;verticalAlign=middle;resizable=0;points=[];autosize=1;strokeColor=none;fillColor=none;" vertex="1" parent="1">
          <mxGeometry x="310" y="685" width="40" height="30" as="geometry" />
        </mxCell>
        <mxCell id="L8GZP44QrCQ9_YgpMMju-14" value="20" style="text;html=1;align=center;verticalAlign=middle;resizable=0;points=[];autosize=1;strokeColor=none;fillColor=none;" vertex="1" parent="1">
          <mxGeometry x="250" y="605" width="40" height="30" as="geometry" />
        </mxCell>
        <mxCell id="L8GZP44QrCQ9_YgpMMju-21" style="rounded=0;orthogonalLoop=1;jettySize=auto;html=1;exitX=1;exitY=0;exitDx=0;exitDy=0;entryX=0;entryY=1;entryDx=0;entryDy=0;" edge="1" parent="1" source="L8GZP44QrCQ9_YgpMMju-15" target="L8GZP44QrCQ9_YgpMMju-20">
          <mxGeometry relative="1" as="geometry" />
        </mxCell>
        <mxCell id="L8GZP44QrCQ9_YgpMMju-15" value="3" style="ellipse;whiteSpace=wrap;html=1;aspect=fixed;" vertex="1" parent="1">
          <mxGeometry x="520" y="600" width="40" height="40" as="geometry" />
        </mxCell>
        <mxCell id="L8GZP44QrCQ9_YgpMMju-22" style="rounded=0;orthogonalLoop=1;jettySize=auto;html=1;exitX=0;exitY=0;exitDx=0;exitDy=0;entryX=1;entryY=1;entryDx=0;entryDy=0;" edge="1" parent="1" source="L8GZP44QrCQ9_YgpMMju-16" target="L8GZP44QrCQ9_YgpMMju-20">
          <mxGeometry relative="1" as="geometry" />
        </mxCell>
        <mxCell id="L8GZP44QrCQ9_YgpMMju-16" value="4" style="ellipse;whiteSpace=wrap;html=1;aspect=fixed;" vertex="1" parent="1">
          <mxGeometry x="640" y="600" width="40" height="40" as="geometry" />
        </mxCell>
        <mxCell id="L8GZP44QrCQ9_YgpMMju-17" value="15" style="text;html=1;align=center;verticalAlign=middle;resizable=0;points=[];autosize=1;strokeColor=none;fillColor=none;" vertex="1" parent="1">
          <mxGeometry x="490" y="605" width="40" height="30" as="geometry" />
        </mxCell>
        <mxCell id="L8GZP44QrCQ9_YgpMMju-18" value="15" style="text;html=1;align=center;verticalAlign=middle;resizable=0;points=[];autosize=1;strokeColor=none;fillColor=none;" vertex="1" parent="1">
          <mxGeometry x="610" y="605" width="40" height="30" as="geometry" />
        </mxCell>
        <mxCell id="L8GZP44QrCQ9_YgpMMju-34" style="rounded=0;orthogonalLoop=1;jettySize=auto;html=1;exitX=1;exitY=0;exitDx=0;exitDy=0;entryX=0;entryY=1;entryDx=0;entryDy=0;" edge="1" parent="1" source="L8GZP44QrCQ9_YgpMMju-20" target="L8GZP44QrCQ9_YgpMMju-33">
          <mxGeometry relative="1" as="geometry" />
        </mxCell>
        <mxCell id="L8GZP44QrCQ9_YgpMMju-20" value="" style="ellipse;whiteSpace=wrap;html=1;aspect=fixed;" vertex="1" parent="1">
          <mxGeometry x="580" y="520" width="40" height="40" as="geometry" />
        </mxCell>
        <mxCell id="L8GZP44QrCQ9_YgpMMju-23" value="30" style="text;html=1;align=center;verticalAlign=middle;resizable=0;points=[];autosize=1;strokeColor=none;fillColor=none;" vertex="1" parent="1">
          <mxGeometry x="545" y="525" width="40" height="30" as="geometry" />
        </mxCell>
        <mxCell id="L8GZP44QrCQ9_YgpMMju-28" style="rounded=0;orthogonalLoop=1;jettySize=auto;html=1;exitX=0;exitY=0;exitDx=0;exitDy=0;entryX=1;entryY=1;entryDx=0;entryDy=0;" edge="1" parent="1" source="L8GZP44QrCQ9_YgpMMju-24" target="L8GZP44QrCQ9_YgpMMju-26">
          <mxGeometry relative="1" as="geometry" />
        </mxCell>
        <mxCell id="L8GZP44QrCQ9_YgpMMju-24" value="2" style="ellipse;whiteSpace=wrap;html=1;aspect=fixed;" vertex="1" parent="1">
          <mxGeometry x="400" y="600" width="40" height="40" as="geometry" />
        </mxCell>
        <mxCell id="L8GZP44QrCQ9_YgpMMju-25" value="20" style="text;html=1;align=center;verticalAlign=middle;resizable=0;points=[];autosize=1;strokeColor=none;fillColor=none;" vertex="1" parent="1">
          <mxGeometry x="370" y="605" width="40" height="30" as="geometry" />
        </mxCell>
        <mxCell id="L8GZP44QrCQ9_YgpMMju-44" style="rounded=0;orthogonalLoop=1;jettySize=auto;html=1;exitX=1;exitY=0;exitDx=0;exitDy=0;entryX=0;entryY=1;entryDx=0;entryDy=0;" edge="1" parent="1" source="L8GZP44QrCQ9_YgpMMju-26" target="L8GZP44QrCQ9_YgpMMju-43">
          <mxGeometry relative="1" as="geometry" />
        </mxCell>
        <mxCell id="L8GZP44QrCQ9_YgpMMju-26" value="" style="ellipse;whiteSpace=wrap;html=1;aspect=fixed;" vertex="1" parent="1">
          <mxGeometry x="340" y="520" width="40" height="40" as="geometry" />
        </mxCell>
        <mxCell id="L8GZP44QrCQ9_YgpMMju-29" value="40" style="text;html=1;align=center;verticalAlign=middle;resizable=0;points=[];autosize=1;strokeColor=none;fillColor=none;" vertex="1" parent="1">
          <mxGeometry x="310" y="525" width="40" height="30" as="geometry" />
        </mxCell>
        <mxCell id="L8GZP44QrCQ9_YgpMMju-35" style="rounded=0;orthogonalLoop=1;jettySize=auto;html=1;exitX=0;exitY=0;exitDx=0;exitDy=0;entryX=1;entryY=1;entryDx=0;entryDy=0;" edge="1" parent="1" source="L8GZP44QrCQ9_YgpMMju-31" target="L8GZP44QrCQ9_YgpMMju-33">
          <mxGeometry relative="1" as="geometry" />
        </mxCell>
        <mxCell id="L8GZP44QrCQ9_YgpMMju-31" value="1" style="ellipse;whiteSpace=wrap;html=1;aspect=fixed;" vertex="1" parent="1">
          <mxGeometry x="700" y="520" width="40" height="40" as="geometry" />
        </mxCell>
        <mxCell id="L8GZP44QrCQ9_YgpMMju-32" value="35" style="text;html=1;align=center;verticalAlign=middle;resizable=0;points=[];autosize=1;strokeColor=none;fillColor=none;" vertex="1" parent="1">
          <mxGeometry x="670" y="525" width="40" height="30" as="geometry" />
        </mxCell>
        <mxCell id="L8GZP44QrCQ9_YgpMMju-49" style="rounded=0;orthogonalLoop=1;jettySize=auto;html=1;exitX=0;exitY=0;exitDx=0;exitDy=0;entryX=1;entryY=1;entryDx=0;entryDy=0;" edge="1" parent="1" source="L8GZP44QrCQ9_YgpMMju-33" target="L8GZP44QrCQ9_YgpMMju-47">
          <mxGeometry relative="1" as="geometry" />
        </mxCell>
        <mxCell id="L8GZP44QrCQ9_YgpMMju-33" value="" style="ellipse;whiteSpace=wrap;html=1;aspect=fixed;" vertex="1" parent="1">
          <mxGeometry x="640" y="440" width="40" height="40" as="geometry" />
        </mxCell>
        <mxCell id="L8GZP44QrCQ9_YgpMMju-36" value="65" style="text;html=1;align=center;verticalAlign=middle;resizable=0;points=[];autosize=1;strokeColor=none;fillColor=none;" vertex="1" parent="1">
          <mxGeometry x="610" y="445" width="40" height="30" as="geometry" />
        </mxCell>
        <mxCell id="L8GZP44QrCQ9_YgpMMju-45" style="rounded=0;orthogonalLoop=1;jettySize=auto;html=1;exitX=0;exitY=0;exitDx=0;exitDy=0;entryX=1;entryY=1;entryDx=0;entryDy=0;" edge="1" parent="1" source="L8GZP44QrCQ9_YgpMMju-41" target="L8GZP44QrCQ9_YgpMMju-43">
          <mxGeometry relative="1" as="geometry" />
        </mxCell>
        <mxCell id="L8GZP44QrCQ9_YgpMMju-41" value="0" style="ellipse;whiteSpace=wrap;html=1;aspect=fixed;" vertex="1" parent="1">
          <mxGeometry x="460" y="520" width="40" height="40" as="geometry" />
        </mxCell>
        <mxCell id="L8GZP44QrCQ9_YgpMMju-42" value="45" style="text;html=1;align=center;verticalAlign=middle;resizable=0;points=[];autosize=1;strokeColor=none;fillColor=none;" vertex="1" parent="1">
          <mxGeometry x="430" y="525" width="40" height="30" as="geometry" />
        </mxCell>
        <mxCell id="L8GZP44QrCQ9_YgpMMju-48" style="rounded=0;orthogonalLoop=1;jettySize=auto;html=1;exitX=1;exitY=0;exitDx=0;exitDy=0;entryX=0;entryY=1;entryDx=0;entryDy=0;" edge="1" parent="1" source="L8GZP44QrCQ9_YgpMMju-43" target="L8GZP44QrCQ9_YgpMMju-47">
          <mxGeometry relative="1" as="geometry" />
        </mxCell>
        <mxCell id="L8GZP44QrCQ9_YgpMMju-43" value="" style="ellipse;whiteSpace=wrap;html=1;aspect=fixed;" vertex="1" parent="1">
          <mxGeometry x="400" y="440" width="40" height="40" as="geometry" />
        </mxCell>
        <mxCell id="L8GZP44QrCQ9_YgpMMju-46" value="85" style="text;html=1;align=center;verticalAlign=middle;resizable=0;points=[];autosize=1;strokeColor=none;fillColor=none;" vertex="1" parent="1">
          <mxGeometry x="370" y="445" width="40" height="30" as="geometry" />
        </mxCell>
        <mxCell id="L8GZP44QrCQ9_YgpMMju-47" value="" style="ellipse;whiteSpace=wrap;html=1;aspect=fixed;" vertex="1" parent="1">
          <mxGeometry x="520" y="360" width="40" height="40" as="geometry" />
        </mxCell>
        <mxCell id="L8GZP44QrCQ9_YgpMMju-50" value="150" style="text;html=1;align=center;verticalAlign=middle;resizable=0;points=[];autosize=1;strokeColor=none;fillColor=none;" vertex="1" parent="1">
          <mxGeometry x="480" y="365" width="40" height="30" as="geometry" />
        </mxCell>
      </root>
    </mxGraphModel>
  </diagram>
</mxfile>
